<?xml version="1.0" encoding="utf-8"?>
<!-- Generator: Adobe Illustrator 27.2.0, SVG Export Plug-In . SVG Version: 6.00 Build 0)  -->
<svg version="1.1" id="Layer_1" xmlns="http://www.w3.org/2000/svg" xmlns:xlink="http://www.w3.org/1999/xlink" x="0px" y="0px"
	 viewBox="0 0 700 525" style="enable-background:new 0 0 700 525;" xml:space="preserve">
<style type="text/css">
	.st0{opacity:0.65;fill:#66C2A5;}
	.st1{fill:#FC8D62;}
	.st2{opacity:0.65;fill:#8DA0CB;}
	.st3{fill:none;stroke:#000000;}
	.st4{font-family:'Helvetica';}
	.st5{font-size:14px;}
	.st6{font-size:12px;}
	.st7{font-family:'Arial-BoldMT';}
	.st8{font-size:20px;}
	.st9{enable-background:new    ;}
	.st10{font-family:'ArialMT';}
	.st11{font-size:18px;}
	.st12{font-family:'MyriadPro-Regular';}
	.st13{font-size:16.7277px;}
	.st14{fill:none;stroke:#0A002E;stroke-miterlimit:10;}
	.st15{fill:none;stroke:#0A002E;stroke-miterlimit:10;stroke-dasharray:11.9615,11.9615;}
	.st16{fill:#0A002E;}
	.st17{fill:#494949;}
</style>
<path class="st0" d="M14.5,483.3c11,0,11-2.6,22.1-2.6s11-17.9,22.1-17.9c11.1,0,11.1-23,22.1-23c11,0,11-10.2,22.1-10.2
	s11-5.2,22.1-5.2c11,0,11-7.7,22.1-7.7c11.1,0,11.1-13.6,22.1-13.6c11,0,11,0.5,22.1,0.5c11,0,11-6.6,22.1-6.6c11,0,11,3.2,22.1,3.2
	c11.1,0,11.1-10.3,22.1-10.3c11,0,11-4.4,22.1-4.4c11,0,11-14.3,22.1-14.3s11-26.8,22.1-26.8c11.1,0,11.1-59.8,22.1-59.8
	c11,0,11-42.2,22.1-42.2c11,0,11-71.4,22.1-71.4c11,0,11-48.5,22.1-48.5c11.1,0,11.1,72.8,22.1,72.8c11,0,11-84.2,22.1-84.2
	c11,0,11-55.5,22.1-55.5c11,0,11,11.1,22.1,11.1c11.1,0,11.1-34.9,22.1-34.9c11,0,11,29.5,22.1,29.5s11,12.9,22.1,12.9
	c11,0,11,20.3,22.1,20.3c11.1,0,11.1-13.2,22.1-13.2c11,0,11-39.4,22.1-39.4c11,0,11,7.8,22.1,7.8c11,0,11,198,22.1,198v193.3
	c-11,0-11-187.5-22.1-187.5c-11,0-11,6.8-22.1,6.8c-11,0-11,17.5-22.1,17.5c-11.1,0-11.1,15.2-22.1,15.2c-11,0-11,0.1-22.1,0.1
	c-11,0-11-1-22.1-1s-11,7-22.1,7c-11.1,0-11.1,10.4-22.1,10.4c-11,0-11,7.5-22.1,7.5c-11,0-11,17.8-22.1,17.8
	c-11,0-11,13.5-22.1,13.5c-11.1,0-11.1-5.9-22.1-5.9c-11,0-11,19.7-22.1,19.7c-11,0-11,16.8-22.1,16.8c-11,0-11,10.4-22.1,10.4
	c-11.1,0-11.1,30.3-22.1,30.3c-11,0-11,8.1-22.1,8.1s-11,11.2-22.1,11.2c-11,0-11,7.3-22.1,7.3c-11.1,0-11.1,4.6-22.1,4.6
	c-11,0-11,1.2-22.1,1.2c-11,0-11,2.6-22.1,2.6c-11,0-11,0.1-22.1,0.1c-11.1,0-11.1,1.9-22.1,1.9c-11,0-11,0-22.1,0
	c-11,0-11,1.8-22.1,1.8s-11,3.3-22.1,3.3c-11.1,0-11.1,16.1-22.1,16.1c-11,0-11,12.9-22.1,12.9s-11,0-22.1,0V483.3z"/>
<path class="st1" d="M14.5,472.6c11,0,11-3,22.1-3s11,8.9,22.1,8.9c11.1,0,11.1-0.6,22.1-0.6c11,0,11-1.6,22.1-1.6s11-19,22.1-19
	c11,0,11,0,22.1,0c11.1,0,11.1-1.9,22.1-1.9c11,0,11-0.1,22.1-0.1c11,0,11-2.6,22.1-2.6c11,0,11-1.2,22.1-1.2
	c11.1,0,11.1-4.6,22.1-4.6c11,0,11-7.3,22.1-7.3c11,0,11-11.2,22.1-11.2s11-8.1,22.1-8.1c11.1,0,11.1-30.3,22.1-30.3
	c11,0,11-10.4,22.1-10.4c11,0,11-16.8,22.1-16.8c11,0,11-19.7,22.1-19.7c11.1,0,11.1,5.9,22.1,5.9c11,0,11-13.5,22.1-13.5
	c11,0,11-17.8,22.1-17.8c11,0,11-7.5,22.1-7.5c11.1,0,11.1-10.4,22.1-10.4c11,0,11-7,22.1-7s11,1,22.1,1c11,0,11-0.1,22.1-0.1
	c11.1,0,11.1-15.2,22.1-15.2c11,0,11-17.5,22.1-17.5c11,0,11-6.8,22.1-6.8c11,0,11-202.7,22.1-202.7v195.3
	c-11,0-11,204.3-22.1,204.3c-11,0-11-1.3-22.1-1.3c-11,0-11,0.7-22.1,0.7c-11.1,0-11.1,2.1-22.1,2.1c-11,0-11,2.3-22.1,2.3
	c-11,0-11-1.8-22.1-1.8s-11-0.7-22.1-0.7c-11.1,0-11.1,3.8-22.1,3.8c-11,0-11-0.5-22.1-0.5c-11,0-11,2.4-22.1,2.4
	c-11,0-11,0.4-22.1,0.4c-11.1,0-11.1-0.1-22.1-0.1c-11,0-11,3-22.1,3c-11,0-11-0.8-22.1-0.8c-11,0-11-1.6-22.1-1.6
	c-11.1,0-11.1,10-22.1,10c-11,0-11,1.9-22.1,1.9s-11,2.7-22.1,2.7c-11,0-11,1.9-22.1,1.9c-11.1,0-11.1,1.3-22.1,1.3
	c-11,0-11-1.1-22.1-1.1c-11,0-11,0.5-22.1,0.5c-11,0-11,0.7-22.1,0.7c-11.1,0-11.1-1.7-22.1-1.7c-11,0-11-1.6-22.1-1.6
	c-11,0-11,16.8-22.1,16.8s-11,0-22.1,0c-11.1,0-11.1,0-22.1,0c-11,0-11-10.7-22.1-10.7s-11,2.6-22.1,2.6V472.6z"/>
<path class="st2" d="M14.5,455.3c11,0,11-3.8,22.1-3.8s11-5.9,22.1-5.9c11.1,0,11.1,16.8,22.1,16.8c11,0,11-3.3,22.1-3.3
	s11,15.5,22.1,15.5c11,0,11,1.6,22.1,1.6c11.1,0,11.1,1.7,22.1,1.7c11,0,11-0.7,22.1-0.7c11,0,11-0.5,22.1-0.5c11,0,11,1.1,22.1,1.1
	c11.1,0,11.1-1.3,22.1-1.3c11,0,11-1.9,22.1-1.9c11,0,11-2.7,22.1-2.7s11-1.9,22.1-1.9c11.1,0,11.1-10,22.1-10c11,0,11,1.6,22.1,1.6
	c11,0,11,0.8,22.1,0.8c11,0,11-3,22.1-3c11.1,0,11.1,0.1,22.1,0.1c11,0,11-0.4,22.1-0.4c11,0,11-2.4,22.1-2.4c11,0,11,0.5,22.1,0.5
	c11.1,0,11.1-3.8,22.1-3.8c11,0,11,0.7,22.1,0.7s11,1.8,22.1,1.8c11,0,11-2.3,22.1-2.3c11.1,0,11.1-2.1,22.1-2.1
	c11,0,11-0.7,22.1-0.7c11,0,11,1.3,22.1,1.3c11,0,11-10.1,22.1-10.1v48.9c-11,0-11,0-22.1,0c-11,0-11,0-22.1,0c-11,0-11,0-22.1,0
	c-11.1,0-11.1,0-22.1,0c-11,0-11,0-22.1,0c-11,0-11,0-22.1,0s-11,0-22.1,0c-11.1,0-11.1,0-22.1,0c-11,0-11,0-22.1,0
	c-11,0-11,0-22.1,0c-11,0-11,0-22.1,0c-11.1,0-11.1,0-22.1,0c-11,0-11,0-22.1,0c-11,0-11,0-22.1,0c-11,0-11,0-22.1,0
	c-11.1,0-11.1,0-22.1,0c-11,0-11,0-22.1,0s-11,0-22.1,0c-11,0-11,0-22.1,0c-11.1,0-11.1,0-22.1,0c-11,0-11,0-22.1,0
	c-11,0-11,0-22.1,0c-11,0-11,0-22.1,0c-11.1,0-11.1,0-22.1,0c-11,0-11,0-22.1,0c-11,0-11-15.1-22.1-15.1s-11,1.6-22.1,1.6
	c-11.1,0-11.1-15.2-22.1-15.2c-11,0-11,6.9-22.1,6.9s-11,3-22.1,3V455.3z"/>
<path class="st3" d="M14.5,490.6h662.9"/>
<line class="st3" x1="14.5" y1="490.6" x2="14.5" y2="495.6"/>
<text transform="matrix(1.0096 0 0 1 -1.168251e-04 508.3881)" class="st4 st5">1990</text>
<line class="st3" x1="58.7" y1="490.6" x2="58.7" y2="495.6"/>
<text transform="matrix(1.0096 0 0 1 44.1639 508.3881)" class="st4 st5">1992</text>
<line class="st3" x1="102.9" y1="490.6" x2="102.9" y2="495.6"/>
<text transform="matrix(1.0096 0 0 1 88.389 508.3881)" class="st4 st5">1994</text>
<line class="st3" x1="147.1" y1="490.6" x2="147.1" y2="495.6"/>
<text transform="matrix(1.0096 0 0 1 132.5531 508.3881)" class="st4 st5">1996</text>
<line class="st3" x1="191.3" y1="490.6" x2="191.3" y2="495.6"/>
<text transform="matrix(1.0096 0 0 1 176.7782 508.3881)" class="st4 st5">1998</text>
<line class="st3" x1="235.5" y1="490.6" x2="235.5" y2="495.6"/>
<text transform="matrix(1.0096 0 0 1 220.9423 508.3881)" class="st4 st5">2000</text>
<line class="st3" x1="279.7" y1="490.6" x2="279.7" y2="495.6"/>
<text transform="matrix(1.0096 0 0 1 265.1669 508.3881)" class="st4 st5">2002</text>
<line class="st3" x1="323.8" y1="490.6" x2="323.8" y2="495.6"/>
<text transform="matrix(1.0096 0 0 1 309.3309 508.3881)" class="st4 st5">2004</text>
<line class="st3" x1="368.1" y1="490.6" x2="368.1" y2="495.6"/>
<text transform="matrix(1.0096 0 0 1 353.5565 508.3881)" class="st4 st5">2006</text>
<line class="st3" x1="412.2" y1="490.6" x2="412.2" y2="495.6"/>
<text transform="matrix(1.0096 0 0 1 397.7216 508.3881)" class="st4 st5">2008</text>
<line class="st3" x1="456.5" y1="490.6" x2="456.5" y2="495.6"/>
<text transform="matrix(1.0096 0 0 1 441.9462 508.3881)" class="st4 st5">2010</text>
<line class="st3" x1="500.6" y1="490.6" x2="500.6" y2="495.6"/>
<text transform="matrix(1.0096 0 0 1 486.1112 508.3881)" class="st4 st5">2012</text>
<line class="st3" x1="544.8" y1="490.6" x2="544.8" y2="495.6"/>
<text transform="matrix(1.0096 0 0 1 530.3358 508.3881)" class="st4 st5">2014</text>
<line class="st3" x1="589" y1="490.6" x2="589" y2="495.6"/>
<text transform="matrix(1.0096 0 0 1 574.5009 508.3881)" class="st4 st6">2016</text>
<line class="st3" x1="633.2" y1="490.6" x2="633.2" y2="495.6"/>
<text transform="matrix(1.0096 0 0 1 618.7235 508.3881)" class="st4 st5">2018</text>
<line class="st3" x1="677.4" y1="490.6" x2="677.4" y2="495.6"/>
<text transform="matrix(1.0096 0 0 1 662.8885 508.3881)" class="st4 st5">2020</text>
<text transform="matrix(1.0096 0 0 1 1.659393e-04 18.842)" class="st7 st8">Financial flows to low-middle income countries</text>
<text transform="matrix(1.0096 0 0 1 500.6178 195.1697)" class="st9"><tspan x="0" y="0" class="st7 st5">Foreign </tspan><tspan x="0" y="16.8" class="st7 st5">Direct </tspan><tspan x="0" y="33.6" class="st7 st5">Investment</tspan></text>
<text transform="matrix(1.0096 0 0 1 501.4219 363.3777)" class="st7 st5">Remittances</text>
<text transform="matrix(1.0096 0 0 1 501.5791 477.5987)" class="st7 st5">Foreign Aid</text>
<rect y="31.7" class="st1" width="103.3" height="19.8"/>
<text transform="matrix(1.0096 0 0 1 -1.564026e-04 45.5338)"><tspan x="0" y="0" class="st10 st11">Remittances are a vital mechanism of development </tspan><tspan x="0" y="21.6" class="st10 st11">in low and middle income countries</tspan><tspan x="280.1" y="21.6" class="st12 st13">.</tspan></text>
<g>
	<g>
		<path class="st14" d="M370.3,120.3c1.4-0.9,3.1-1.9,5.2-3.1"/>
		<path class="st15" d="M386,111.5c24.9-12.7,70.9-30.8,130.5-28.3c65.8,2.8,112.9,29.3,136.5,46"/>
		<path class="st14" d="M657.9,132.8c1.8,1.3,3.4,2.5,4.8,3.7"/>
		<g>
			<path class="st16" d="M667.3,140.3c-2.9-1-6.7-1.8-9.6-1.7l4.3-2.6l1.6-4.8C664.2,134.1,665.8,137.7,667.3,140.3z"/>
		</g>
	</g>
</g>
<text transform="matrix(1 0 0 1 58.6721 136.1076)" class="st10 st5">Remittances surpassed FDI during the pandemic. </text>
<text transform="matrix(1 0 0 1 1.3568 522.8092)" class="st17 st10 st6">Source: World Bank</text>
</svg>
